HIERARCHY
ROOT base
{
	OFFSET 0.0 0.0 0.0
	CHANNELS 6 Xposition Yposition Zposition Zrotation Yrotation Xrotation
	JOINT root
	{
		OFFSET 0 0 0
		CHANNELS 6 Xposition Yposition Zposition Zrotation Yrotation Xrotation
		JOINT chest
		{
			OFFSET 0 4.72302 0
			CHANNELS 3 Zrotation Yrotation Xrotation
			JOINT neck
			{
				OFFSET 0 4.47788 0
				CHANNELS 3 Zrotation Yrotation Xrotation
				End Site
				{
					OFFSET 0.0 0.0 0.0
				}
			}
			JOINT right_shoulder
			{
				OFFSET -0.481 4.87 3.6622
				CHANNELS 3 Zrotation Yrotation Xrotation
				JOINT right_elbow
				{
					OFFSET 0 -5.49576 0
					CHANNELS 3 Zrotation Yrotation Xrotation
					JOINT right_wrist
					{
						OFFSET 0 -5.17894 0
						CHANNELS 3 Zrotation Yrotation Xrotation
						End Site
						{
							OFFSET 0.0 0.0 0.0
						}
					}
				}
			}
			JOINT left_shoulder
			{
				OFFSET -0.481 4.87 -3.6622
				CHANNELS 3 Zrotation Yrotation Xrotation
				JOINT left_elbow
				{
					OFFSET 0 -5.49576 0
					CHANNELS 3 Zrotation Yrotation Xrotation
					JOINT left_wrist
					{
						OFFSET 0 -5.17894 0
						CHANNELS 3 Zrotation Yrotation Xrotation
						End Site
						{
							OFFSET 0.0 0.0 0.0
						}
					}
				}
			}
		}
		JOINT right_hip
		{
			OFFSET 0 0 1.69774
			CHANNELS 3 Zrotation Yrotation Xrotation
			JOINT right_knee
			{
				OFFSET 0 -8.43092 0
				CHANNELS 3 Zrotation Yrotation Xrotation
				JOINT right_ankle
				{
					OFFSET 0 -8.1974 0
					CHANNELS 3 Zrotation Yrotation Xrotation
					End Site
					{
						OFFSET 0.0 0.0 0.0
					}
				}
			}
		}
		JOINT left_hip
		{
			OFFSET 0 0 -1.69774
			CHANNELS 3 Zrotation Yrotation Xrotation
			JOINT left_knee
			{
				OFFSET 0 -8.43092 0
				CHANNELS 3 Zrotation Yrotation Xrotation
				JOINT left_ankle
				{
					OFFSET 0 -8.1974 0
					CHANNELS 3 Zrotation Yrotation Xrotation
					End Site
					{
						OFFSET 0.0 0.0 0.0
					}
				}
			}
		}
	}
	JOINT red_arrow
	{
		OFFSET 0 0 0
		CHANNELS 3 Zrotation Yrotation Xrotation
		End Site
		{
			OFFSET 0.0 0.0 0.0
		}
	}
	JOINT blue_arrow
	{
		OFFSET 0 0 0
		CHANNELS 3 Zrotation Yrotation Xrotation
		End Site
		{
			OFFSET 0.0 0.0 0.0
		}
	}
}
MOTION
Frames: 9
Frame Time: 0.0333333333333333
0 18.08466 0 0 0 0 0 0 0 0 -90 0 0 0 0 0 0 0 0 0 -90 0 0 0 0 0 0 0 0 90 0 0 0 0 0 0 0 0 0 0 0 0 0 0 0 0 0 0 0 0 0 0 0 0 0 0 0 0 0 0
1.50466141700745 0 -0.0048684276640415 0 -9.18523863472127 0 0 16.062932407856 0 -28.8705492222961 3.57812401664646E-15 -12.0913048920062 1.66046800629769 1.03326844752752 8.59325563465166 -3.44538301940915 -1.80819182965115 2.42118143937252 -1.30958409847877 23.7088256227702 -33.8822745003927 79.1216285152906 0 0 0 0 0 -23.6405598699709 -23.4644076195188 37.1460848873305 63.5789388324688 0 0 0 0 0 55.3854039899903 -2.91796519629076 11.7409292804586 -43.8688911898337 0 0 17.7215813994786 4.45700432306775 -1.25371307507691 38.0132185276794 4.92103329361036 16.0439012991167 -97.7625944584677 0 0 -1.34946725333772 8.94862427816459 -17.3660366155603 0 0 0 0 0 0
3.39366817474365 0 0.0265967138111592 0 -9.561661486987 0 0 16.5039224863052 0 -30.9843261708418 -6.13993184377697 -14.0442388838408 6.83638485825077 4.09363234024673 7.54454241163581 -7.01044254640308 -3.37511118043684 3.01437079814901 13.4509738474888 34.1355096781686 -38.2476122166255 84.6955888025871 0 0 0 0 0 -46.3506232015052 -23.4273212197263 45.3214663827549 55.8392485027663 0 0 0 0 0 45.6494393886947 -2.83728072144129 15.8367169733506 -32.5778713219398 0 0 18.5326167591661 10.1019670768241 -0.900971128257513 55.4284479766464 -2.21107406137651 22.570798006735 -99.1871943344139 0 0 -4.74012349170438 17.6277723345163 -27.7685813051885 0 0 0 0 0 0
5.62709128856659 0 -0.0926661252975464 0 -9.65174790907622 0 0 17.0182407975197 0 -30.8432653412836 -1.46968452510743 -14.1940419322106 5.43936653381595 2.90323920760903 4.63810530013668 -4.22080923296486 -5.73494596270932 2.8979082643971 24.2107199065898 36.0488895256472 -38.2816357439803 95.8629890766929 0 0 0 0 0 -58.6202721802468 -15.7436120311669 48.9678830004065 62.531597625139 0 0 0 0 0 28.4630017414093 -1.93992251034803 12.5533997909871 -14.744740880204 0 0 14.0865776370675 10.8592704763999 -0.182224953370716 66.3506207400873 -9.50156289163869 18.8139765659234 -91.883823319081 0 0 -10.7065264392244 22.412789033608 -37.9871247077014 0 0 0 0 0 0
7.71871247291565 0 -0.358988715708256 0 -9.44241087133135 0 0 17.4698466300964 0 -32.8486935762367 3.34301945456667 -14.1041499725074 3.68125206044051 2.26225728311927 2.5588368711318 -1.09813049881854 -5.01707619067476 2.73667384405772 27.0579160794751 34.0889591917398 -39.0191694595161 109.76727347198 0 0 0 0 0 -69.447508695537 -5.52551358641653 49.3117416611059 73.9318253876723 0 0 0 0 0 20.3293754517007 -0.204237899577864 9.75235041669193 -7.15922755686259 0 0 0.268024353706756 6.08309682681306 -1.57122977455224 76.4168240800446 -10.8359846904898 12.8400711300043 -76.537658669248 0 0 -9.00752643880262 20.5083204366916 -38.9669645382203 0 0 0 0 0 0
9.97022033929825 0 -0.813241222500801 0 -9.00215747421714 0 0 17.7509928584099 0 -31.8101678279118 7.12243415701593 -12.5519999210729 -0.934013055801433 2.24115190244961 1.38940669519512 -1.18862084144315 -3.57344239764367 1.62017363545126 26.777471116888 31.5507983575374 -42.2207805462946 118.051855803098 0 0 0 0 0 -70.5397091905722 0.623979227409324 45.8726956521214 77.0058203255282 0 0 0 0 0 9.62913234670993 0.692508834574294 5.73647345450413 0.0262199356251286 0 0 -18.6344063351395 5.65544972224487 -0.0848351581590882 76.4562547928798 -6.33022990408282 8.07391318094396 -59.1068929639704 0 0 -4.47383019161164 19.437287076884 -37.585072659807 0 0 0 0 0 0
12.3258502006531 0 -1.33450783193111 0 -8.46216070822718 0 0 17.7323387980461 0 -29.7270964514824 8.93307735424702 -10.2783750448837 -2.32064086646764 2.1708066982229 0.947031039210508 -3.6910645369156 -3.540978829492 -0.528455371566772 26.9556142468204 30.6793000452794 -48.5500508697404 116.655696834856 0 0 0 0 0 -69.5534788359941 5.74952952753145 42.4475864946567 77.6608969386349 0 0 0 0 0 0.170321503654048 0.530296448456811 1.71206003054093 1.05507456515154E-05 0 0 -23.670887518454 5.37860323116203 0.660806418315813 72.8524773633159 -2.49340446093423 5.16201692162858 -43.3131323574481 0 0 0.643754614507897 18.5452995985232 -32.9631744096756 0 0 0 0 0 0
14.7319388091564 0 -1.78989378660917 0 -7.90157954786818 0 0 17.4669682621956 0 -26.9298316780493 9.51843941568713 -8.33788344518421 -2.99649594187313 1.92646166757042 0.679648795509096 -5.79617086017856 -5.09671833252994 -3.48159847504246 27.4738203033365 31.6188433299109 -55.2612965357598 113.118526278814 0 0 0 0 0 -67.676970396149 11.461721792123 39.995040308971 77.675561354783 0 0 0 0 0 -7.2022319820471 -0.106470063648176 -0.648607792995578 -4.96381692741832 0 0 -23.9423870336484 5.06077845248866 0.864968844183265 68.1245310001927 -1.08767476693656 3.41070755301499 -33.0419314496234 0 0 5.21431472036287 17.3689203648486 -26.7970947573456 0 0 0 0 0 0
17.1199150979519 0 -2.17959295958281 0 -7.34434180359119 0 0 17.0542420387268 0 -23.853316277794 9.70113226621162 -6.82630978448274 -4.82090578290925 1.62636374783687 0.0358602765279466 -7.2777651138799 -6.99958508185359 -6.60823939995032 28.5241467058207 29.7909828722177 -56.0513060411801 109.050554401613 0 0 0 0 0 -63.3853011568952 15.4634810830193 37.4540145176666 78.0031099066201 0 0 0 0 0 -10.3533191564637 -0.33223937465831 -1.46430336078598 -16.696151539286 0 0 -23.0880400977669 4.67279910404085 0.63768462694199 64.2694483994118 -1.01353941588636 1.92351878942287 -31.8270115510074 0 0 8.12180682163188 15.4259954651041 -20.3480162594295 0 0 0 0 0 0
